<svg xmlns="http://www.w3.org/2000/svg" viewBox="0 0 720 720" width="32" height="32"><path fill="#000000" d="M 407.6 474.45 C 412.61 513.22 407.03 534.46 399.79 575.96 C 396.13 596.95 474.57 512.86 504.65 462.73 C 509.67 454.37 475.88 495.33 442.46 466.08 C 419.28 445.8 415.3 439.64 397.28 422.02 C 391.2 416.08 404.02 446.74 407.6 474.45 Z"/><path fill="#000000" d="M 321.99 425.09 C 303.97 442.71 299.99 448.87 276.81 469.15 C 243.39 498.4 209.6 457.44 214.62 465.8 C 244.7 515.93 323.14 600.02 319.48 579.03 C 312.24 537.53 306.66 516.29 311.67 477.52 C 315.25 449.81 328.07 419.15 321.99 425.09 Z"/><path fill="#000000" d="M 332.48 421.18 C 332.48 421.18 336.25 443.63 331.66 493.13 C 325.9 555.19 355.3 653.77 355.3 653.77 C 355.3 653.77 395.4 554.99 388.4 491.18 C 382.65 438.73 391 420.39 389.22 422.85 C 358.41 465.42 332.47 421.18 332.47 421.18 Z"/><path fill="#000000" d="M 330.91 303.77 C 264.29 351.33 195.07 345.55 163.3 242.14 C 157.67 223.8 145.48 375.45 215.17 405.01 C 235.87 413.79 224.87 383.03 261.74 355.09 C 282.52 339.34 343.91 294.49 330.9 303.78 Z"/><path fill="#000000" d="M 465.61 318 C 546.04 314.68 560.9 182.83 554.57 198.92 C 526.18 271.14 418.71 243.97 408.44 289.56 C 406.42 298.5 426.64 319.62 465.61 318.01 Z"/><path fill="#000000" d="M 311.95 289.55 C 301.68 243.96 194.2 271.14 165.82 198.91 C 159.5 182.82 174.35 314.67 254.78 317.99 C 293.75 319.6 313.97 298.49 311.95 289.54 Z"/><path fill="#000000" d="M 403.42 269.47 C 403.42 269.47 447.15 245.97 484.58 235.73 C 519.57 226.15 545.8 202.6 548.72 177.72 C 550.9 159.19 521.67 124.17 521.67 124.17 C 521.67 124.17 501.16 181.07 474.26 209.51 C 444.98 240.47 456.11 236.29 403.42 269.47 Z"/><path fill="#000000" d="M 246.13 209.51 C 219.23 181.07 198.72 124.17 198.72 124.17 C 198.72 124.17 169.49 159.18 171.67 177.72 C 174.6 202.6 200.83 226.15 235.81 235.73 C 273.24 245.98 316.97 269.47 316.97 269.47 C 264.28 236.29 275.42 240.47 246.13 209.51 Z"/><path fill="#000000" d="M 398.12 265.85 C 445.48 227 470.65 176.31 511.63 120.83 C 519.36 110.37 477.05 85.13 460.32 83.46 C 443.59 81.79 429.55 143.25 427.97 179.4 C 426.53 212.41 391.76 271.08 398.13 265.85 Z"/><path fill="#000000" d="M 292.42 179.39 C 290.84 143.24 276.8 81.78 260.07 83.45 C 243.34 85.12 201.03 110.36 208.76 120.82 C 249.74 176.3 274.9 226.99 322.27 265.84 C 328.64 271.06 293.87 212.39 292.43 179.39 Z"/><path fill="#000000" d="M 402.86 140.35 C 406.2 113.59 418.23 94.03 442.18 77.6 C 421.01 70.52 403.41 64.77 394.21 72.3 C 385.01 79.83 360.01 105 363.36 145.98 C 366.7 186.96 363.54 340.07 370.79 337.23 C 374.69 232.36 407.88 202.23 402.86 140.34 Z"/><path fill="#000000" d="M 349.59 337.24 C 356.83 340.07 353.67 186.97 357.02 145.99 C 360.36 105.01 335.37 79.83 326.17 72.31 C 316.97 64.78 299.37 70.53 278.2 77.61 C 302.15 94.04 314.18 113.59 317.52 140.36 C 312.5 202.25 345.69 232.38 349.59 337.25 Z"/><path fill="#000000" d="M 458.64 355.09 C 495.51 383.03 484.52 413.79 505.21 405.01 C 574.91 375.46 562.72 223.8 557.08 242.14 C 525.31 345.55 456.09 351.34 389.47 303.77 C 376.46 294.48 437.85 339.34 458.63 355.08 Z"/><path fill="#000000" d="M 399.15 355.87 C 435.82 366.44 450.04 417.37 487.06 423.67 C 494.71 424.97 503.33 427.27 513.37 426.79 C 532.14 425.89 555.88 415.28 587.59 370.29 C 596.97 356.99 564.32 455.95 482.46 457.15 C 422.5 458.03 415.49 398.45 375.53 396.64 C 361.1 395.99 360.19 368.47 360.19 368.47 C 360.19 368.47 377.41 349.61 399.15 355.87 Z"/><path fill="#000000" d="M 321.51 355.59 C 284.84 366.16 270.62 417.09 233.6 423.39 C 225.95 424.69 217.33 426.99 207.29 426.51 C 188.52 425.61 164.78 415 133.07 370.01 C 123.69 356.71 156.34 455.67 238.2 456.87 C 298.16 457.75 305.17 398.17 345.13 396.36 C 359.56 395.71 360.47 368.19 360.47 368.19 C 360.47 368.19 343.25 349.33 321.51 355.59 Z"/></svg>